<svg xmlns="http://www.w3.org/2000/svg" viewBox="0 0 25 25"><defs><style>.cls-1{fill:#331c0e;}</style></defs><g id="Layer_5" data-name="Layer 5"><path id="menu-1" class="cls-1" d="M21.66,5.35H3.52c-.21,0-.38-.11-.38-.26V3.76c0-.14.17-.26.38-.26H21.66c.21,0,.38.12.38.26V5.09C22,5.24,21.87,5.35,21.66,5.35Zm0,6.47H3.5c-.2,0-.36.11-.36.24v1.36c0,.14.16.25.36.25H21.68c.2,0,.36-.11.36-.25V12.06C22,11.93,21.88,11.82,21.68,11.82Zm0,8H3.49c-.2,0-.35.11-.35.24v1.38c0,.13.15.24.35.24h18.2c.19,0,.35-.11.35-.24V20.06C22,19.93,21.88,19.82,21.69,19.82Z"/></g></svg>