<svg xmlns="http://www.w3.org/2000/svg" viewBox="0 0 25 25"><defs><style>.cls-1{fill:#331c0e;}.cls-2{fill:#fff;}</style></defs><g id="ig"><rect class="cls-1" x="3.81" y="3.81" width="17.39" height="17.39" rx="1.5" transform="translate(12.5 -5.18) rotate(45)"/><path id="instagram-11" class="cls-2" d="M12.5,8.5c1.3,0,1.46,0,2,0a1.84,1.84,0,0,1,2,2c0,.51,0,.67,0,2s0,1.46,0,2a1.84,1.84,0,0,1-2,2c-.51,0-.67,0-2,0s-1.46,0-2,0a1.83,1.83,0,0,1-2-2c0-.51,0-.67,0-2s0-1.46,0-2a1.84,1.84,0,0,1,2-2C11,8.51,11.2,8.5,12.5,8.5Zm0-.88c-1.32,0-1.49,0-2,0a2.7,2.7,0,0,0-2.84,2.84c0,.52,0,.69,0,2s0,1.49,0,2a2.7,2.7,0,0,0,2.84,2.84c.52,0,.69,0,2,0s1.49,0,2,0a2.7,2.7,0,0,0,2.84-2.84c0-.52,0-.69,0-2s0-1.49,0-2a2.7,2.7,0,0,0-2.84-2.84C14,7.63,13.82,7.62,12.5,7.62Zm0,2.38A2.5,2.5,0,1,0,15,12.5,2.5,2.5,0,0,0,12.5,10Zm0,4.13a1.63,1.63,0,1,1,1.63-1.63A1.63,1.63,0,0,1,12.5,14.13Zm2.6-4.82a.59.59,0,1,0,.59.59A.58.58,0,0,0,15.1,9.31Z"/></g></svg>