<svg xmlns="http://www.w3.org/2000/svg" viewBox="0 0 25 25"><defs><style>.cls-1{fill:none;stroke:#331c0e;stroke-miterlimit:10;stroke-width:0.3px;}.cls-2{fill:#331c0e;fill-rule:evenodd;}</style></defs><g id="fb"><rect class="cls-1" x="1.47" y="1.47" width="22.05" height="22.05"/><rect class="cls-1" x="2.78" y="2.78" width="19.45" height="19.45"/></g><g id="pinterest"><path id="pinterest-1" class="cls-2" d="M12.5,7a5.54,5.54,0,0,0-2,10.7,5.31,5.31,0,0,1,0-1.59l.65-2.75a2,2,0,0,1-.17-.83c0-.77.45-1.34,1-1.34a.69.69,0,0,1,.7.78,10.92,10.92,0,0,1-.46,1.84.81.81,0,0,0,.82,1c1,0,1.74-1,1.74-2.53A2.19,2.19,0,0,0,12.48,10,2.4,2.4,0,0,0,10,12.39a2.15,2.15,0,0,0,.41,1.26.2.2,0,0,1,0,.16c0,.17-.14.55-.16.63s-.08.12-.18.07A2.48,2.48,0,0,1,9,12.37,3.36,3.36,0,0,1,12.62,9,3.25,3.25,0,0,1,16,12.21c0,1.91-1.21,3.45-2.88,3.45A1.47,1.47,0,0,1,11.89,15s-.27,1.06-.34,1.32a6.27,6.27,0,0,1-.69,1.45A5.54,5.54,0,1,0,12.5,7Z"/></g></svg>