<svg xmlns="http://www.w3.org/2000/svg" viewBox="0 0 25 25"><defs><style>.cls-1{fill:#331c0e;}.cls-2{fill:#fff;}</style></defs><g id="twitter"><rect class="cls-1" x="3.81" y="3.89" width="17.39" height="17.39" rx="1.51" transform="translate(12.56 -5.15) rotate(45)"/><path id="twitter-1" class="cls-2" d="M17.62,9.41a4.09,4.09,0,0,1-1.21.33,2.1,2.1,0,0,0,.93-1.16A4.18,4.18,0,0,1,16,9.09a2.08,2.08,0,0,0-1.53-.66A2.1,2.1,0,0,0,12.42,11a6,6,0,0,1-4.33-2.2,2.12,2.12,0,0,0,.65,2.81,2.05,2.05,0,0,1-1-.27,2.1,2.1,0,0,0,1.69,2.09,2.16,2.16,0,0,1-1,0,2.1,2.1,0,0,0,2,1.46,4.24,4.24,0,0,1-3.11.87,6,6,0,0,0,9.19-5.31A4.35,4.35,0,0,0,17.62,9.41Z"/></g></svg>